<svg width="438" height="438" viewBox="0 0 438 438" fill="none" xmlns="http://www.w3.org/2000/svg">
<path d="M0 47.9003V197.4C0 214.4 6.7 230.7 18.7 242.7L194.7 418.7C219.7 443.7 260.2 443.7 285.2 418.7L418.7 285.2C443.7 260.2 443.7 219.7 418.7 194.7L242.7 18.7003C230.7 6.70035 214.4 0.000347428 197.4 0.000347428H48C21.5 -0.0996526 0 21.4003 0 47.9003ZM112 143.9C94.3 143.9 80 129.6 80 111.9C80 94.2004 94.3 79.9004 112 79.9004C129.7 79.9004 144 94.2004 144 111.9C144 129.6 129.7 143.9 112 143.9Z" fill="#505052"/>
</svg>
